<svg width="22" height="22" viewBox="0 0 22 22" fill="none" xmlns="http://www.w3.org/2000/svg">
<path d="M6.45033 0.166992H15.5503C19.017 0.166992 21.8337 2.98366 21.8337 6.45033V15.5503C21.8337 17.2168 21.1717 18.815 19.9933 19.9933C18.815 21.1717 17.2168 21.8337 15.5503 21.8337H6.45033C2.98366 21.8337 0.166992 19.017 0.166992 15.5503V6.45033C0.166992 4.78388 0.828984 3.18569 2.00734 2.00734C3.18569 0.828984 4.78388 0.166992 6.45033 0.166992ZM6.23366 2.33366C5.19931 2.33366 4.20733 2.74455 3.47594 3.47594C2.74455 4.20733 2.33366 5.19931 2.33366 6.23366V15.767C2.33366 17.9228 4.07783 19.667 6.23366 19.667H15.767C16.8013 19.667 17.7933 19.2561 18.5247 18.5247C19.2561 17.7933 19.667 16.8013 19.667 15.767V6.23366C19.667 4.07783 17.9228 2.33366 15.767 2.33366H6.23366ZM16.6878 3.95866C17.047 3.95866 17.3914 4.10133 17.6454 4.35528C17.8993 4.60924 18.042 4.95368 18.042 5.31283C18.042 5.67197 17.8993 6.01641 17.6454 6.27037C17.3914 6.52432 17.047 6.66699 16.6878 6.66699C16.3287 6.66699 15.9842 6.52432 15.7303 6.27037C15.4763 6.01641 15.3337 5.67197 15.3337 5.31283C15.3337 4.95368 15.4763 4.60924 15.7303 4.35528C15.9842 4.10133 16.3287 3.95866 16.6878 3.95866ZM11.0003 5.58366C12.4369 5.58366 13.8147 6.15434 14.8305 7.17016C15.8463 8.18599 16.417 9.56374 16.417 11.0003C16.417 12.4369 15.8463 13.8147 14.8305 14.8305C13.8147 15.8463 12.4369 16.417 11.0003 16.417C9.56374 16.417 8.18599 15.8463 7.17016 14.8305C6.15434 13.8147 5.58366 12.4369 5.58366 11.0003C5.58366 9.56374 6.15434 8.18599 7.17016 7.17016C8.18599 6.15434 9.56374 5.58366 11.0003 5.58366ZM11.0003 7.75033C10.1384 7.75033 9.31172 8.09273 8.70223 8.70223C8.09273 9.31172 7.75033 10.1384 7.75033 11.0003C7.75033 11.8623 8.09273 12.6889 8.70223 13.2984C9.31172 13.9079 10.1384 14.2503 11.0003 14.2503C11.8623 14.2503 12.6889 13.9079 13.2984 13.2984C13.9079 12.6889 14.2503 11.8623 14.2503 11.0003C14.2503 10.1384 13.9079 9.31172 13.2984 8.70223C12.6889 8.09273 11.8623 7.75033 11.0003 7.75033Z" fill="white"/>
</svg>
