<svg width="27" height="16" viewBox="0 0 27 16" fill="none" xmlns="http://www.w3.org/2000/svg">
<path d="M25.8787 15.9762H23.0275C21.9487 15.9762 21.6238 15.1024 19.69 13.1674C18 11.5387 17.2862 11.3362 16.8587 11.3362C16.2675 11.3362 16.1063 11.4987 16.1063 12.3124V14.8774C16.1063 15.5712 15.8813 15.9774 14.0688 15.9774C12.3104 15.8593 10.6052 15.3251 9.09371 14.4189C7.58222 13.5126 6.30766 12.2603 5.375 10.7649C3.16048 8.00871 1.61963 4.77378 0.875 1.31743C0.875 0.889928 1.0375 0.502428 1.8525 0.502428H4.7025C5.435 0.502428 5.69875 0.828679 5.98625 1.58243C7.37 5.65493 9.73125 9.19743 10.69 9.19743C11.0575 9.19743 11.2175 9.03493 11.2175 8.11868V3.92368C11.0963 2.00993 10.08 1.84868 10.08 1.15618C10.0929 0.97348 10.1764 0.802989 10.313 0.68092C10.4495 0.558851 10.6283 0.49482 10.8113 0.502428H15.2913C15.9038 0.502428 16.1063 0.807428 16.1063 1.53993V7.20243C16.1063 7.81368 16.3688 8.01618 16.5538 8.01618C16.9212 8.01618 17.2038 7.81368 17.8775 7.14118C19.3217 5.37991 20.5016 3.41764 21.38 1.31618C21.4699 1.06387 21.6399 0.847896 21.864 0.7012C22.0881 0.554503 22.354 0.485136 22.6213 0.503678H25.4725C26.3275 0.503678 26.5087 0.931179 26.3275 1.54118C25.2905 3.8642 24.0073 6.06931 22.5 8.11868C22.1925 8.58743 22.07 8.83118 22.5 9.38118C22.7825 9.80868 23.7825 10.6437 24.4538 11.4374C25.4313 12.4124 26.2425 13.5399 26.8563 14.7749C27.1012 15.5699 26.6925 15.9762 25.8787 15.9762Z" fill="white"/>
</svg>
