<svg width="967" height="340" viewBox="0 0 967 340" fill="none" xmlns="http://www.w3.org/2000/svg">
<path d="M219.525 0.495117V226.805H268.47V260.727H219.525V339.717H181.726V260.727H0V226.805L149.742 0.495117H219.525ZM181.726 13.0948L41.6759 226.805H181.726V13.0948Z" fill="white"/>
<path d="M451.057 202.014L364.981 339.717H400.779L482.987 208.085V339.717H514.917V202.014H451.057Z" fill="white"/>
<path d="M451.057 138.154L313.398 52.0777V87.8753L445.031 170.084H313.398V202.014L451.057 202.014V138.154Z" fill="white"/>
<path d="M514.917 138.154L600.993 0.495117H565.241L482.987 132.128V0.495117H451.057V138.154L514.917 138.154Z" fill="white"/>
<path d="M652.621 138.154L514.917 138.154L514.917 202.014L652.621 288.09V252.337L520.988 170.084H652.621V138.154Z" fill="white"/>
<path d="M917.076 0.495117V226.805H966.021V260.727H917.076V339.717H879.277V260.727H697.551V226.805L847.293 0.495117H917.076ZM879.277 13.0948L739.227 226.805H879.277V13.0948Z" fill="white"/>
</svg>
