<svg width="232" height="65" viewBox="0 0 232 65" fill="none" xmlns="http://www.w3.org/2000/svg">
<path d="M74.0521 16.7573C60.8097 31.0055 45.005 42.8971 32.0637 57.3316C31.4773 57.9857 26.1293 64.4889 24.7756 63.5863C23.6291 62.822 40.5108 49.9778 40.8747 49.7171C60.3542 35.7657 79.3947 21.6378 97.5482 5.98828" stroke="#1E1F1F" stroke-width="2" stroke-linecap="round"/>
<path d="M126.247 1C115.749 16.4374 100.121 28.8702 88.1742 43.206C84.1615 48.0212 80.6178 54.0498 75.7735 58.1086C74.9217 58.8223 71.5444 63.5475 70.9872 63.5475C65.8819 63.5475 79.827 58.4324 84.1494 55.7154C92.299 50.5929 100.304 44.8829 107.809 38.8548C109.948 37.1361 114.988 30.5885 113.465 32.872C111.894 35.2282 108.921 37.3719 107.102 39.725C102.581 45.5708 89.6215 63.5618 93.9395 57.5647C96.0173 54.6787 97.8663 51.9498 98.3994 48.3185C100.355 34.9934 84.2721 33.5509 74.305 32.1106C55.0755 29.3317 32.9544 29.4881 14.2594 35.3195C10.1577 36.599 2.51844 39.6612 1.04285 44.4569C0.209561 47.1651 11.7978 45.9516 12.4646 45.9254C57.3916 44.1636 102.834 39.4237 147.132 31.893C163.175 29.1657 179.312 26.231 195.158 22.4837C195.316 22.4463 202.005 21.2531 203.153 19.8186C203.555 19.3159 201.874 19.9888 201.249 20.145C198.052 20.9442 194.767 21.2941 191.514 21.7766C165.05 25.7018 132.567 28.2479 110.691 45.4359C108.639 47.0484 98.363 53.6668 106.231 52.3977C109.527 51.8662 112.526 50.8175 115.749 50.059C118.296 49.4599 115.537 50.179 114.825 50.6029C107.823 54.7705 112.475 58.3634 118.741 57.0208C121.863 56.3517 124.482 55.8242 128.041 55.8242C134.028 55.8242 141.4 53.3113 147.078 51.4187C149.247 50.6957 144.788 51.6603 146.86 51.3643C174.843 47.3668 202.992 44.102 231 40.1602" stroke="#1E1F1F" stroke-width="2" stroke-linecap="round"/>
</svg>
